<svg xmlns="http://www.w3.org/2000/svg"  viewBox="0 0 2765.229 4170.121"><path d="M2962.74-1184.618c106.9-170.495,91.684-137.914,186.848-215.862s193.81-95.93,193.81-95.93,112.013-39.61,271.829-32.427c54.976,2.471,128.42,22.982,184.325,32.427,106.573,18.006,88.182,27.726,271.77,24.76s133.056-26.2,462.584-36.624c137.413-4.347,284.6,100.7,375.978,230.218,128.522,182.168,175.453,407.674,175.453,407.674s116.879,399.5,137.748,987.9,56.81,810.307-52.951,1365.641-181.733,654.145-386.093,855.693c-21.555,21.259-43.5,41.039-65.533,59.368-254.543,211.709-395.98,240.845-533.569,241.159s-356.065-41.34-625.927-197.527-432.9-376.25-453.521-427.218-163.206-300.272-254-592.865-166.733-596.116-166.733-596.116L2579.626,436.293s-107.6-327.767-97.418-486.439c24.721-385.126,160.582-373.179,280.715-656.8S2855.843-1014.123,2962.74-1184.618Z" transform="translate(-2481.012 1530.237)"/></svg>